<?xml version="1.0" encoding="UTF-8"?>
<svg width="44.5px" height="36px" viewBox="0 0 44.5 36" version="1.1" xmlns="http://www.w3.org/2000/svg" xmlns:xlink="http://www.w3.org/1999/xlink">
    <title>icon/graduation</title>
    <g id="Symbols" stroke="none" stroke-width="1" fill="none" fill-rule="evenodd">
        <g id="icon/graduation">
            <rect x="0" y="0" width="44.5" height="36"></rect>
            <path d="M44.9942627,10.8905235 L45.0001898,10.9915881 L45.0001898,10.9915881 L44.9940576,11.1099432 L44.9940576,11.1099432 L44.9809505,11.1954767 L44.9809505,11.1954767 L44.9524802,11.3046714 L44.9524802,11.3046714 L44.9291023,11.3699759 L44.9291023,11.3699759 L44.8944272,11.4472136 C44.8710362,11.4939956 44.844473,11.5381429 44.8151287,11.5795253 L44.7409747,11.6719119 L44.7409747,11.6719119 L44.6600889,11.7515389 L44.6600889,11.7515389 C44.84111,11.9080688 44.9640104,12.1314437 44.9932723,12.3833789 L45.0001898,12.5 L45.0001898,27.5 C45.0001898,28.0522847 44.5522847,28.5 44,28.5 C43.4871642,28.5 43.0644928,28.1139598 43.0067277,27.6166211 L43,27.5 L42.9997809,12.618 L36.9997809,15.618 L37,31.578 C37,31.82591 36.9079139,32.0649824 36.7416073,32.2488343 C36.1600705,32.8917232 34.9975868,33.7988708 33.19098,34.6865169 C30.2413526,36.1357672 26.528005,37 22,37 C17.471995,37 13.7586474,36.1357672 10.80902,34.6865169 C9.00241321,33.7988708 7.83992954,32.8917232 7.25839271,32.2488343 C7.11980391,32.0956244 7.03275706,31.9040669 7.00759113,31.7010038 L7,31.578 L6.99978094,15.618 L-0.513233363,11.8583032 L-0.513233363,11.8583032 L-0.62332059,11.7822729 L-0.62332059,11.7822729 L-0.707087709,11.7075095 L-0.707087709,11.7075095 L-0.806040694,11.5922164 L-0.806040694,11.5922164 L-0.872446392,11.4889108 L-0.872446392,11.4889108 L-0.894427191,11.4472136 L-0.921496144,11.3884793 L-0.921496144,11.3884793 L-0.959806563,11.2806777 L-0.959806563,11.2806777 L-0.985008288,11.1728737 L-0.985008288,11.1728737 L-0.997159991,11.0774511 L-0.997159991,11.0774511 L-0.997159991,10.9226132 L-0.997159991,10.9226132 L-0.985276328,10.8275003 L-0.985276328,10.8275003 L-0.952480249,10.6953286 L-0.952480249,10.6953286 L-0.929102344,10.6300241 L-0.929102344,10.6300241 L-0.894427191,10.5527864 L-0.894427191,10.5527864 L-0.852747531,10.4775653 L-0.852747531,10.4775653 L-0.788734451,10.3848875 L-0.788734451,10.3848875 L-0.707509516,10.2929123 L-0.707509516,10.2929123 L-0.623241592,10.2177093 L-0.623241592,10.2177093 L-0.536052467,10.1556381 L-0.447213595,10.1055728 L21.5527864,-0.894427191 C21.7940957,-1.01508183 22.0720256,-1.03231821 22.3237979,-0.946136322 L22.4472136,-0.894427191 L44.4472136,10.1055728 L44.5094217,10.1394344 L44.5094217,10.1394344 L44.5981897,10.1983812 L44.5981897,10.1983812 L44.7012614,10.2867139 L44.7012614,10.2867139 L44.7661187,10.3569424 L44.7661187,10.3569424 L44.8180934,10.4245786 L44.8180934,10.4245786 L44.8633578,10.4951982 L44.8633578,10.4951982 L44.8944272,10.5527864 L44.9214961,10.6115207 L44.9214961,10.6115207 L44.9598066,10.7193223 L44.9598066,10.7193223 C44.9765818,10.7758304 44.9879517,10.8331459 44.9942627,10.8905235 Z M35,16.618 L22.4472136,22.8944272 C22.2059043,23.0150818 21.9279744,23.0323182 21.6762021,22.9461363 L21.5527864,22.8944272 L8.99978094,16.618 L8.99978094,31.154 L9.05767013,31.2039382 C9.12038121,31.2578591 9.19141703,31.3170798 9.27089397,31.3810712 L9.39645478,31.4805702 C10.0072987,31.957244 10.7694414,32.4387004 11.69098,32.8914831 C14.3663526,34.2059828 17.778005,35 22,35 C26.221995,35 29.6336474,34.2059828 32.30902,32.8914831 C33.2305586,32.4387004 33.9927013,31.957244 34.6035452,31.4805702 L34.729106,31.3810712 L35,31.153 L35,16.618 Z M22,1.118 L2.23578094,10.999 L22,20.881 L41.7627809,11 L22,1.118 Z" id="Shape" fill="#FFFFFF" fill-rule="nonzero"></path>
        </g>
    </g>
</svg>