<?xml version="1.0" encoding="UTF-8"?>
<svg width="44px" height="44px" viewBox="0 0 44 44" version="1.1" xmlns="http://www.w3.org/2000/svg" xmlns:xlink="http://www.w3.org/1999/xlink">
    <title>icon/newspaper</title>
    <g id="Symbols" stroke="none" stroke-width="1" fill="none" fill-rule="evenodd">
        <g id="icon/newspaper">
            <rect x="0" y="0" width="44" height="44"></rect>
            <path d="M44,-1 C44.5128358,-1 44.9355072,-0.61395981 44.9932723,-0.116621125 L45,0 L45,36 C45,40.8815297 41.1129182,44.8557817 36.2653479,44.9961626 L36,45 L4,45 C1.31040695,45 -0.881862238,42.8785096 -0.995382228,40.2169541 L-1,40 L-1,19.918 C-1,19.3657153 -0.55228475,18.918 0,18.918 C0.512835839,18.918 0.935507161,19.3040402 0.993272269,19.8013789 L1,19.918 L1,40 C1,41.6577153 2.34228475,43 4,43 C5.59851113,43 6.90372018,41.7518806 6.99491048,40.1763586 L7,40 L7,0 C7,-0.512835839 7.38604019,-0.935507161 7.88337887,-0.993272269 L8,-1 L44,-1 Z M43,1 L9,1 L9,40 C9,41.1262727 8.62798963,42.165338 8.00009227,43.0010726 L36,43 C39.7851795,43 42.8690873,39.9949501 42.9959406,36.2406331 L43,36 L43,1 Z M36,35 C36.5522847,35 37,35.4477153 37,36 C37,36.5128358 36.6139598,36.9355072 36.1166211,36.9932723 L36,37 L16,37 C15.4477153,37 15,36.5522847 15,36 C15,35.4871642 15.3860402,35.0644928 15.8833789,35.0067277 L16,35 L36,35 Z M36,27 C36.5522847,27 37,27.4477153 37,28 C37,28.5128358 36.6139598,28.9355072 36.1166211,28.9932723 L36,29 L16,29 C15.4477153,29 15,28.5522847 15,28 C15,27.4871642 15.3860402,27.0644928 15.8833789,27.0067277 L16,27 L36,27 Z M36,7 C36.5128358,7 36.9355072,7.38604019 36.9932723,7.88337887 L37,8 L37,20 C37,20.5128358 36.6139598,20.9355072 36.1166211,20.9932723 L36,21 L16,21 C15.4871642,21 15.0644928,20.6139598 15.0067277,20.1166211 L15,20 L15,8 C15,7.48716416 15.3860402,7.06449284 15.8833789,7.00672773 L16,7 L36,7 Z M35,9 L17,9 L17,19 L35,19 L35,9 Z" id="Shape" fill="#FFFFFF" fill-rule="nonzero"></path>
        </g>
    </g>
</svg>