<?xml version="1.0" encoding="UTF-8"?>
<svg width="44px" height="44px" viewBox="0 0 44 44" version="1.1" xmlns="http://www.w3.org/2000/svg" xmlns:xlink="http://www.w3.org/1999/xlink">
    <title>icon/trash</title>
    <g id="Symbols" stroke="none" stroke-width="1" fill="none" fill-rule="evenodd">
        <g id="icon/trash">
            <rect x="0" y="0" width="44" height="44"></rect>
            <path d="M38,-1 C39.5977025,-1 40.9036624,0.248912022 40.9949074,1.82372636 L41,2 L41,7 L44,7 C44.5522847,7 45,7.44771525 45,8 C45,8.51283584 44.6139598,8.93550716 44.1166211,8.99327227 L44,9 L42.915,9 L40.7585377,33.1442319 C40.6214322,34.6798134 39.3586286,35.8973333 37.5958577,36.5277456 C38.4654873,37.4261328 39,38.6506453 39,40 C39,42.7614237 36.7614237,45 34,45 C31.2385763,45 29,42.7614237 29,40 C29,38.8743068 29.3720025,37.8354995 29.9997798,36.9998057 L14.0002202,36.9998057 C14.6279975,37.8354995 15,38.8743068 15,40 C15,42.7614237 12.7614237,45 10,45 C7.23857625,45 5,42.7614237 5,40 C5,38.6501476 5.53490709,37.4252294 6.40431639,36.5256504 C4.71379947,35.9231195 3.48346422,34.7790346 3.26410139,33.3324253 L3.24146377,33.1442485 L1.084,9 L0,9 C-0.55228475,9 -1,8.55228475 -1,8 C-1,7.48716416 -0.61395981,7.06449284 -0.116621125,7.00672773 L0,7 L3,7 L3,2 C3,0.402318634 4.2489195,-0.903660914 5.82372716,-0.994907308 L6,-1 L38,-1 Z M10,37 C8.34314575,37 7,38.3431458 7,40 C7,41.6568542 8.34314575,43 10,43 C11.6568542,43 13,41.6568542 13,40 C13,38.3431458 11.6568542,37 10,37 Z M34,37 C32.3431458,37 31,38.3431458 31,40 C31,41.6568542 32.3431458,43 34,43 C35.6568542,43 37,41.6568542 37,40 C37,38.3431458 35.6568542,37 34,37 Z M40.906,9 L3.093,9 L5.23353771,32.9663681 C5.32192944,33.9563555 6.91551343,34.9280479 9.00575797,34.9961917 L9.24,35 L34.76,35 C36.8856508,35 38.551994,34.0636643 38.7504993,33.0762316 L38.7664638,32.9663515 L40.906,9 Z M28.6724651,13.878011 C29.2461981,13.8333875 29.7303102,14.2787384 29.7494912,14.8388491 L29.7470171,14.9522902 L29.507248,18.0451378 C29.4221249,19.1901523 29.2317049,20.5895702 28.8935968,22.0144634 C28.3646955,24.2434183 27.5890345,26.0241832 26.457114,27.156108 C23.8875076,29.7257052 20.2426226,30.0866573 17.4235416,28.119223 L17.1428253,27.9133829 L16.8049388,28.4235382 C16.7107405,28.5706068 16.6235004,28.7113876 16.5430018,28.8457533 L16.3582083,29.1636154 L16.1813379,29.49453 L16.1606902,29.5380899 C15.932547,30.0410502 15.3398704,30.2638335 14.8369101,30.0356902 C14.3339498,29.807547 14.1111665,29.2148704 14.3393098,28.7119101 L14.5109917,28.3661267 L14.5109917,28.3661267 L14.6677483,28.0824571 L14.8598442,27.7571937 L15.0885632,27.3911285 L15.3551892,26.9850537 L15.7060695,26.4750946 C13.5170937,23.6224749 13.815373,19.8222259 16.4689094,17.168577 C17.6008278,16.0367104 19.3816867,15.2610886 21.6108164,14.7321877 C22.877349,14.4316802 24.1234811,14.2478719 25.1866585,14.151085 L25.5764566,14.118811 L28.6724651,13.878011 Z M27.662,15.962 L25.3698238,16.1427455 C24.3911089,16.2319697 23.2348964,16.402371 22.0725336,16.6781623 C20.1729426,17.1288742 18.6921378,17.7738128 17.8831218,18.5827918 C16.0755867,20.3904035 15.761025,22.820426 16.9762592,24.7980537 C18.1389512,23.3561258 19.5743673,21.8009183 21.3110578,20.1501837 C21.7113628,19.7696914 22.344324,19.7857528 22.7248163,20.1860578 C23.1053086,20.5863628 23.0892472,21.219324 22.6889422,21.5998163 C20.9120665,23.2887472 19.471704,24.8639396 18.3319822,26.3042046 L18.4494409,26.3938695 C20.357034,27.8013474 22.7816493,27.6889779 24.6619806,26.0932081 L24.8545126,25.9228384 L25.0429003,25.7418946 C25.8519666,24.9328251 26.4969233,23.4521318 26.9476304,21.5527116 C27.223446,20.3903386 27.393881,19.2338619 27.4832363,18.2529786 L27.662,15.962 Z M38,1 L6,1 C5.4871637,1 5.06449277,1.38603976 5.00672772,1.88337878 L5,2 L5,7 L39,7 L39,2 C39,1.52660177 38.6710794,1.13004949 38.2292964,1.02641002 L38.1166244,1.00672754 L38,1 Z" id="Shape" fill="#FFFFFF" fill-rule="nonzero"></path>
        </g>
    </g>
</svg>